<svg width="162" height="20" viewBox="0 0 162 20" fill="none" xmlns="http://www.w3.org/2000/svg">
<path d="M9.79328 0.860129C10.0931 -0.0601477 11.395 -0.0601469 11.6949 0.86013L13.446 6.23453C13.5801 6.64615 13.9639 6.92473 14.3968 6.92473H20.0575C21.0269 6.92473 21.4293 8.16576 20.6443 8.73452L16.0694 12.0492C15.7179 12.3038 15.5708 12.7561 15.7053 13.1687L17.4539 18.5354C17.7539 19.4562 16.7006 20.2232 15.9164 19.655L11.3308 16.3326C10.9808 16.079 10.5074 16.079 10.1574 16.3326L5.57182 19.655C4.78756 20.2232 3.73427 19.4562 4.03429 18.5354L5.78287 13.1687C5.91732 12.7561 5.77024 12.3038 5.41878 12.0492L0.843907 8.73453C0.0589003 8.16576 0.461231 6.92473 1.43063 6.92473H7.09138C7.52431 6.92473 7.90807 6.64615 8.04219 6.23453L9.79328 0.860129Z" fill="#070707"/>
<path d="M44.8904 0.860129C45.1903 -0.0601477 46.4922 -0.0601469 46.7921 0.86013L48.5432 6.23453C48.6773 6.64615 49.061 6.92473 49.494 6.92473H55.1547C56.1241 6.92473 56.5264 8.16576 55.7414 8.73452L51.1666 12.0492C50.8151 12.3038 50.668 12.7561 50.8025 13.1687L52.551 18.5354C52.8511 19.4562 51.7978 20.2232 51.0135 19.655L46.428 16.3326C46.0779 16.079 45.6046 16.079 45.2545 16.3326L40.669 19.655C39.8847 20.2232 38.8314 19.4562 39.1315 18.5354L40.88 13.1687C41.0145 12.7561 40.8674 12.3038 40.5159 12.0492L35.9411 8.73453C35.1561 8.16576 35.5584 6.92473 36.5278 6.92473H42.1885C42.6215 6.92473 43.0052 6.64615 43.1394 6.23453L44.8904 0.860129Z" fill="#070707"/>
<path d="M79.9876 0.860129C80.2875 -0.0601477 81.5894 -0.0601469 81.8892 0.86013L83.6403 6.23453C83.7744 6.64615 84.1582 6.92473 84.5911 6.92473H90.2519C91.2213 6.92473 91.6236 8.16576 90.8386 8.73452L86.2637 12.0492C85.9123 12.3038 85.7652 12.7561 85.8996 13.1687L87.6482 18.5354C87.9482 19.4562 86.8949 20.2232 86.1107 19.655L81.5251 16.3326C81.1751 16.079 80.7017 16.079 80.3517 16.3326L75.7662 19.655C74.9819 20.2232 73.9286 19.4562 74.2286 18.5354L75.9772 13.1687C76.1117 12.7561 75.9646 12.3038 75.6131 12.0492L71.0382 8.73453C70.2532 8.16576 70.6556 6.92473 71.625 6.92473H77.2857C77.7186 6.92473 78.1024 6.64615 78.2365 6.23453L79.9876 0.860129Z" fill="#070707"/>
<path d="M115.085 0.860129C115.385 -0.0601477 116.687 -0.0601469 116.986 0.86013L118.737 6.23453C118.872 6.64615 119.255 6.92473 119.688 6.92473H125.349C126.318 6.92473 126.721 8.16576 125.936 8.73452L121.361 12.0492C121.009 12.3038 120.862 12.7561 120.997 13.1687L122.745 18.5354C123.045 19.4562 121.992 20.2232 121.208 19.655L116.622 16.3326C116.272 16.079 115.799 16.079 115.449 16.3326L110.863 19.655C110.079 20.2232 109.026 19.4562 109.326 18.5354L111.074 13.1687C111.209 12.7561 111.062 12.3038 110.71 12.0492L106.135 8.73453C105.35 8.16576 105.753 6.92473 106.722 6.92473H112.383C112.816 6.92473 113.2 6.64615 113.334 6.23453L115.085 0.860129Z" fill="#070707"/>
<path d="M150.182 0.860129C150.482 -0.0601477 151.784 -0.0601469 152.084 0.86013L153.835 6.23453C153.969 6.64615 154.353 6.92473 154.785 6.92473H160.446C161.416 6.92473 161.818 8.16576 161.033 8.73452L156.458 12.0492C156.107 12.3038 155.96 12.7561 156.094 13.1687L157.843 18.5354C158.143 19.4562 157.089 20.2232 156.305 19.655L151.719 16.3326C151.369 16.079 150.896 16.079 150.546 16.3326L145.96 19.655C145.176 20.2232 144.123 19.4562 144.423 18.5354L146.172 13.1687C146.306 12.7561 146.159 12.3038 145.807 12.0492L141.233 8.73453C140.448 8.16576 140.85 6.92473 141.819 6.92473H147.48C147.913 6.92473 148.297 6.64615 148.431 6.23453L150.182 0.860129Z" fill="#E5E5E5"/>
</svg>
